{
  "accessors": [
    {
      "bufferView": 2,
      "componentType": 5126,
      "count": 1184,
      "max": [
        3.1080000400543213,
        1.2200000286102295,
        0.89999997615814209
      ],
      "min": [
        -3.1080000400543213,
        0,
        -0.93560701608657837
      ],
      "type": "VEC3"
    },
    {
      "bufferView": 2,
      "byteOffset": 14208,
      "componentType": 5126,
      "count": 1184,
      "max": [
        1,
        1,
        1
      ],
      "min": [
        -1,
        -1,
        -1
      ],
      "type": "VEC3"
    },
    {
      "bufferView": 3,
      "componentType": 5126,
      "count": 1184,
      "max": [
        1,
        1,
        1,
        1
      ],
      "min": [
        -1,
        -1,
        -1,
        1
      ],
      "type": "VEC4"
    },
    {
      "bufferView": 1,
      "componentType": 5126,
      "count": 1184,
      "max": [
        0.97881191968917847,
        0.97377753257751465
      ],
      "min": [
        0.016519540920853615,
        0.0099999997764825821
      ],
      "type": "VEC2"
    },
    {
      "bufferView": 0,
      "componentType": 5125,
      "count": 5217,
      "max": [
        1183
      ],
      "min": [
        0
      ],
      "type": "SCALAR"
    },
    {
      "bufferView": 2,
      "byteOffset": 28416,
      "componentType": 5126,
      "count": 64,
      "max": [
        0.49320414662361145,
        1.0140000581741333,
        0.49320414662361145
      ],
      "min": [
        -0.49320414662361145,
        0.2460000067949295,
        -0.49320414662361145
      ],
      "type": "VEC3"
    },
    {
      "bufferView": 2,
      "byteOffset": 29184,
      "componentType": 5126,
      "count": 64,
      "max": [
        0.8639180064201355,
        0.85476350784301758,
        0.8639180064201355
      ],
      "min": [
        -0.8639180064201355,
        -0.85476350784301758,
        -0.8639180064201355
      ],
      "type": "VEC3"
    },
    {
      "bufferView": 3,
      "byteOffset": 18944,
      "componentType": 5126,
      "count": 64,
      "max": [
        0.93863940238952637,
        0.88812077045440674,
        0.93863940238952637,
        1
      ],
      "min": [
        -1,
        -0.88812077045440674,
        -0.93863940238952637,
        1
      ],
      "type": "VEC4"
    },
    {
      "bufferView": 1,
      "byteOffset": 9472,
      "componentType": 5126,
      "count": 64,
      "max": [
        0.96973299980163574,
        0.98143768310546875
      ],
      "min": [
        0.018562309443950653,
        0.018562309443950653
      ],
      "type": "VEC2"
    },
    {
      "bufferView": 0,
      "byteOffset": 20868,
      "componentType": 5125,
      "count": 132,
      "max": [
        63
      ],
      "min": [
        0
      ],
      "type": "SCALAR"
    },
    {
      "bufferView": 2,
      "byteOffset": 29952,
      "componentType": 5126,
      "count": 324,
      "max": [
        3,
        0.079000003635883331,
        0.015253398567438126
      ],
      "min": [
        -3,
        0,
        -1.8110811710357666
      ],
      "type": "VEC3"
    },
    {
      "bufferView": 2,
      "byteOffset": 33840,
      "componentType": 5126,
      "count": 324,
      "max": [
        1,
        1,
        1
      ],
      "min": [
        -1,
        -1,
        -1
      ],
      "type": "VEC3"
    },
    {
      "bufferView": 3,
      "byteOffset": 19968,
      "componentType": 5126,
      "count": 324,
      "max": [
        1,
        1,
        0.99999821186065674,
        1
      ],
      "min": [
        -1,
        -1,
        -0.99999749660491943,
        -1
      ],
      "type": "VEC4"
    },
    {
      "bufferView": 1,
      "byteOffset": 9984,
      "componentType": 5126,
      "count": 324,
      "max": [
        0.97838693857192993,
        0.99404144287109375
      ],
      "min": [
        0.021864073351025581,
        0.59891694784164429
      ],
      "type": "VEC2"
    },
    {
      "bufferView": 0,
      "byteOffset": 21396,
      "componentType": 5125,
      "count": 750,
      "max": [
        323
      ],
      "min": [
        0
      ],
      "type": "SCALAR"
    },
    {
      "bufferView": 4,
      "componentType": 5126,
      "count": 48,
      "max": [
        15.983298301696777
      ],
      "min": [
        0
      ],
      "type": "SCALAR"
    },
    {
      "bufferView": 6,
      "componentType": 5126,
      "count": 48,
      "max": [
        0,
        0,
        -0,
        -0.70710676908493042
      ],
      "min": [
        -0.70710676908493042,
        0,
        -0,
        -1
      ],
      "type": "VEC4"
    },
    {
      "bufferView": 4,
      "byteOffset": 192,
      "componentType": 5126,
      "count": 333,
      "max": [
        15.983298301696777
      ],
      "min": [
        0
      ],
      "type": "SCALAR"
    },
    {
      "bufferView": 5,
      "componentType": 5126,
      "count": 333,
      "max": [
        0,
        1.6299962997436523,
        0.16305580735206604
      ],
      "min": [
        -0.0002867149596568197,
        0.021466672420501709,
        0.16305549442768097
      ],
      "type": "VEC3"
    },
    {
      "bufferView": 4,
      "byteOffset": 1524,
      "componentType": 5126,
      "count": 305,
      "max": [
        15.983298301696777
      ],
      "min": [
        0
      ],
      "type": "SCALAR"
    },
    {
      "bufferView": 6,
      "byteOffset": 768,
      "componentType": 5126,
      "count": 305,
      "max": [
        0.13052619993686676,
        0.99136650562286377,
        0.13051588833332062,
        0.99143350124359131
      ],
      "min": [
        -0.13052469491958618,
        -0.99143701791763306,
        -0.13052517175674438,
        -0.99144488573074341
      ],
      "type": "VEC4"
    }
  ],
  "animations": [
    {
      "channels": [
        {
          "sampler": 0,
          "target": {
            "node": 9,
            "path": "rotation"
          }
        },
        {
          "sampler": 1,
          "target": {
            "node": 7,
            "path": "translation"
          }
        },
        {
          "sampler": 2,
          "target": {
            "node": 7,
            "path": "rotation"
          }
        }
      ],
      "name": "Take 001",
      "samplers": [
        {
          "input": 15,
          "interpolation": "LINEAR",
          "output": 16
        },
        {
          "input": 17,
          "interpolation": "LINEAR",
          "output": 18
        },
        {
          "input": 19,
          "interpolation": "LINEAR",
          "output": 20
        }
      ]
    }
  ],
  "asset": {
    "extras": {
      "author": "Canary Games (https://sketchfab.com/CapAlatriste)",
      "license": "CC-BY-4.0 (http://creativecommons.org/licenses/by/4.0/)",
      "source": "https://sketchfab.com/3d-models/11-mystery-box-3december2019-5bbcffbeb8d0465cbf901a84e7f36b9f",
      "title": "#11 Mystery Box - 3December2019"
    },
    "generator": "Sketchfab-7.17.0",
    "version": "2.0"
  },
  "bufferViews": [
    {
      "buffer": 0,
      "byteLength": 24396,
      "byteOffset": 0,
      "name": "floatBufferViews",
      "target": 34963
    },
    {
      "buffer": 0,
      "byteLength": 12576,
      "byteOffset": 24396,
      "byteStride": 8,
      "name": "floatBufferViews",
      "target": 34962
    },
    {
      "buffer": 0,
      "byteLength": 37728,
      "byteOffset": 36972,
      "byteStride": 12,
      "name": "floatBufferViews",
      "target": 34962
    },
    {
      "buffer": 0,
      "byteLength": 25152,
      "byteOffset": 74700,
      "byteStride": 16,
      "name": "floatBufferViews",
      "target": 34962
    },
    {
      "buffer": 0,
      "byteLength": 2744,
      "byteOffset": 99852,
      "name": "floatBufferViews"
    },
    {
      "buffer": 0,
      "byteLength": 3996,
      "byteOffset": 102596,
      "byteStride": 12,
      "name": "floatBufferViews"
    },
    {
      "buffer": 0,
      "byteLength": 5648,
      "byteOffset": 106592,
      "byteStride": 16,
      "name": "floatBufferViews"
    }
  ],
  "buffers": [
    {
      "byteLength": 112240,
      "uri": "scene.bin"
    }
  ],
  "images": [
    {
      "uri": "textures/Mysteri_Box_Mystery_BoxMat_baseColor.png"
    },
    {
      "uri": "textures/Mysteri_Box_Mystery_BoxMat_metallicRoughness.png"
    },
    {
      "uri": "textures/Mysteri_Box_Mystery_BoxMat_normal.png"
    },
    {
      "uri": "textures/Mystery_Cube_Mystery_CubeMat_baseColor.png"
    },
    {
      "uri": "textures/Mystery_Cube_Mystery_CubeMat_metallicRoughness.png"
    },
    {
      "uri": "textures/Mystery_Cube_Mystery_CubeMat_emissive.png"
    },
    {
      "uri": "textures/Mystery_Cube_Mystery_CubeMat_normal.png"
    },
    {
      "uri": "textures/Mystery_Tapa_Mystery_BoxMat_emissive.png"
    }
  ],
  "materials": [
    {
      "doubleSided": false,
      "emissiveFactor": [
        0,
        0,
        0
      ],
      "name": "Mysteri_Box_Mystery_BoxMat",
      "normalTexture": {
        "index": 2,
        "scale": 1,
        "texCoord": 0
      },
      "occlusionTexture": {
        "index": 1,
        "strength": 1,
        "texCoord": 0
      },
      "pbrMetallicRoughness": {
        "baseColorFactor": [
          1,
          1,
          1,
          1
        ],
        "baseColorTexture": {
          "index": 0,
          "texCoord": 0
        },
        "metallicFactor": 1,
        "metallicRoughnessTexture": {
          "index": 1,
          "texCoord": 0
        },
        "roughnessFactor": 1
      }
    },
    {
      "alphaMode": "BLEND",
      "doubleSided": false,
      "emissiveFactor": [
        1,
        1,
        1
      ],
      "emissiveTexture": {
        "index": 5,
        "texCoord": 0
      },
      "name": "Mystery_Cube_Mystery_CubeMat",
      "normalTexture": {
        "index": 6,
        "scale": 1,
        "texCoord": 0
      },
      "occlusionTexture": {
        "index": 4,
        "strength": 1,
        "texCoord": 0
      },
      "pbrMetallicRoughness": {
        "baseColorFactor": [
          1,
          1,
          1,
          1
        ],
        "baseColorTexture": {
          "index": 3,
          "texCoord": 0
        },
        "metallicFactor": 1,
        "metallicRoughnessTexture": {
          "index": 4,
          "texCoord": 0
        },
        "roughnessFactor": 1
      }
    },
    {
      "doubleSided": false,
      "emissiveFactor": [
        1,
        1,
        1
      ],
      "emissiveTexture": {
        "index": 7,
        "texCoord": 0
      },
      "name": "Mystery_Tapa_Mystery_BoxMat",
      "normalTexture": {
        "index": 2,
        "scale": 1,
        "texCoord": 0
      },
      "occlusionTexture": {
        "index": 1,
        "strength": 1,
        "texCoord": 0
      },
      "pbrMetallicRoughness": {
        "baseColorFactor": [
          1,
          1,
          1,
          1
        ],
        "baseColorTexture": {
          "index": 0,
          "texCoord": 0
        },
        "metallicFactor": 1,
        "metallicRoughnessTexture": {
          "index": 1,
          "texCoord": 0
        },
        "roughnessFactor": 1
      }
    }
  ],
  "meshes": [
    {
      "primitives": [
        {
          "attributes": {
            "NORMAL": 1,
            "POSITION": 0,
            "TANGENT": 2,
            "TEXCOORD_0": 3
          },
          "indices": 4,
          "material": 0,
          "mode": 4
        }
      ]
    },
    {
      "primitives": [
        {
          "attributes": {
            "NORMAL": 6,
            "POSITION": 5,
            "TANGENT": 7,
            "TEXCOORD_0": 8
          },
          "indices": 9,
          "material": 1,
          "mode": 4
        }
      ]
    },
    {
      "primitives": [
        {
          "attributes": {
            "NORMAL": 11,
            "POSITION": 10,
            "TANGENT": 12,
            "TEXCOORD_0": 13
          },
          "indices": 14,
          "material": 2,
          "mode": 4
        }
      ]
    }
  ],
  "nodes": [
    {
      "children": [
        1
      ],
      "name": "RootNode (gltf orientation matrix)",
      "rotation": [
        -0.70710678118654746,
        -0,
        -0,
        0.70710678118654757
      ]
    },
    {
      "children": [
        2
      ],
      "name": "RootNode (model correction matrix)"
    },
    {
      "children": [
        3
      ],
      "name": "root"
    },
    {
      "children": [
        4
      ],
      "matrix": [
        1,
        0,
        0,
        0,
        0,
        2.2204460492503131e-16,
        1,
        0,
        0,
        -1,
        2.2204460492503131e-16,
        0,
        0,
        0,
        0,
        1
      ],
      "name": "GLTF_SceneRootNode"
    },
    {
      "children": [
        5,
        7,
        9
      ],
      "matrix": [
        -1,
        0,
        0,
        0,
        0,
        1,
        0,
        0,
        0,
        0,
        -1,
        0,
        0,
        0,
        0,
        1
      ],
      "name": "Mystery_Box_0"
    },
    {
      "children": [
        6
      ],
      "name": "Mysteri_Box_1",
      "rotation": [
        0,
        0,
        0,
        -1
      ]
    },
    {
      "mesh": 0,
      "name": ""
    },
    {
      "children": [
        8
      ],
      "name": "Mystery_Cube_2",
      "rotation": [
        0.13052594661712646,
        0,
        0,
        -0.99144494533538818
      ],
      "translation": [
        0,
        0.021466672420501709,
        0.16305580735206604
      ]
    },
    {
      "mesh": 1,
      "name": ""
    },
    {
      "children": [
        10
      ],
      "name": "Mystery_Tapa_3",
      "rotation": [
        0,
        0,
        0,
        -1
      ],
      "translation": [
        0,
        1.1469999551773071,
        0.89999997615814209
      ]
    },
    {
      "mesh": 2,
      "name": ""
    }
  ],
  "samplers": [
    {
      "magFilter": 9729,
      "minFilter": 9987,
      "wrapS": 10497,
      "wrapT": 10497
    }
  ],
  "scene": 0,
  "scenes": [
    {
      "name": "OSG_Scene",
      "nodes": [
        0
      ]
    }
  ],
  "textures": [
    {
      "sampler": 0,
      "source": 0
    },
    {
      "sampler": 0,
      "source": 1
    },
    {
      "sampler": 0,
      "source": 2
    },
    {
      "sampler": 0,
      "source": 3
    },
    {
      "sampler": 0,
      "source": 4
    },
    {
      "sampler": 0,
      "source": 5
    },
    {
      "sampler": 0,
      "source": 6
    },
    {
      "sampler": 0,
      "source": 7
    }
  ]
}

